<svg width="40" height="55" viewBox="0 0 40 55" fill="none" xmlns="http://www.w3.org/2000/svg">
<g clip-path="url(#clip0_81_219)">
<path d="M3.9118 0.118042C1.1591 0.118042 -1.09607 2.37545 -1.09607 5.12792V48.938C-1.09607 52.384 1.71259 55.2047 5.15888 55.2047H37.7198C38.0519 55.2033 38.3698 55.0702 38.6036 54.8345C38.8375 54.5988 38.9682 54.2799 38.9669 53.9479V43.9306V1.36501C38.9656 1.0347 38.8338 0.718296 38.6002 0.48473C38.3666 0.251164 38.0502 0.119364 37.7198 0.118042H7.66526H3.9118ZM3.9118 2.62176H6.41574V42.6836H5.15888C3.74578 42.6836 2.45725 43.1722 1.40787 43.9673V5.12792C1.40787 3.71919 2.50294 2.62176 3.9118 2.62176ZM8.92212 2.62176H18.9403V17.6489C18.9421 17.8797 19.0078 18.1056 19.1299 18.3014C19.252 18.4973 19.4259 18.6556 19.6324 18.7588C19.8389 18.862 20.0699 18.9062 20.2999 18.8863C20.5299 18.8665 20.7499 18.7835 20.9356 18.6465L25.1953 15.4484L29.4476 18.6465C29.6333 18.7863 29.8543 18.8717 30.0858 18.893C30.3174 18.9143 30.5502 18.8707 30.7584 18.7671C30.9665 18.6636 31.1417 18.5041 31.2643 18.3066C31.3869 18.1091 31.4522 17.8814 31.4527 17.6489V2.62176H36.463V42.6836H8.92212V2.62176ZM21.4345 2.62176H28.9487V15.1354L25.946 12.8885C25.7295 12.7268 25.4666 12.6394 25.1965 12.6394C24.9263 12.6394 24.6634 12.7268 24.447 12.8885L21.4345 15.1452V2.62176ZM12.6731 30.1602V32.6639H25.1953V30.1602H12.6731ZM12.6731 35.17V37.6738H20.1874V35.17H12.6731ZM5.15888 45.1873H36.463V47.6911H7.66526V50.1948H36.463V52.7009H5.15888C3.05643 52.7009 1.40787 51.0403 1.40787 48.938C1.40787 46.8358 3.05643 45.1873 5.15888 45.1873Z" fill="#969696"/>
</g>
<defs>
<clipPath id="clip0_81_219">
<rect width="40" height="55" fill="white"/>
</clipPath>
</defs>
</svg>
