<svg width="60" height="41" viewBox="0 0 60 41" fill="none" xmlns="http://www.w3.org/2000/svg">
<g clip-path="url(#clip0_87_128)">
<path d="M50.976 16.694C50.447 7.694 43.028 0.5 34.085 0.5C28.655 0.5 23.397 3.163 20.139 7.508C20.064 7.469 19.985 7.442 19.909 7.406C19.711 7.31 19.51 7.219 19.305 7.137C19.191 7.092 19.077 7.051 18.962 7.011C18.759 6.94 18.553 6.877 18.343 6.82C18.228 6.789 18.114 6.757 17.998 6.731C17.773 6.68 17.543 6.641 17.311 6.606C17.21 6.591 17.111 6.571 17.009 6.56C16.677 6.523 16.341 6.5 16 6.5C11.037 6.5 7 10.537 7 15.5C7 15.627 7.008 15.752 7.016 15.877V15.881C2.857 18.149 0 22.899 0 27.654C0 34.737 5.762 40.5 12.845 40.5H37.353C37.457 40.5 37.56 40.494 37.664 40.486L37.726 40.478L37.86 40.486C37.962 40.494 38.064 40.5 38.169 40.5H47.972C54.604 40.5 60 35.104 60 28.472C60 22.983 56.173 18.06 50.976 16.694ZM47.972 38.5H38.169C38.11 38.5 38.053 38.495 37.995 38.491L37.724 38.48L37.526 38.491C37.469 38.495 37.411 38.5 37.353 38.5H12.845C6.865 38.5 2 33.635 2 27.654C2 23.5 4.705 19.188 8.433 17.401L9 17.13V16.5C9 16.373 9.008 16.244 9.015 16.114L9.024 15.954L9.012 15.744C9.006 15.663 9 15.582 9 15.5C9 11.641 12.141 8.5 16 8.5C16.309 8.5 16.614 8.527 16.917 8.567C16.995 8.577 17.073 8.59 17.15 8.603C17.417 8.647 17.68 8.705 17.939 8.78C17.974 8.79 18.01 8.797 18.045 8.807C18.33 8.894 18.608 9.004 18.88 9.128C18.951 9.16 19.02 9.195 19.09 9.229C19.33 9.348 19.565 9.478 19.792 9.625C21.719 10.873 23 13.038 23 15.5C23 16.053 23.447 16.5 24 16.5C24.553 16.5 25 16.053 25 15.5C25 12.746 23.754 10.281 21.8 8.629C24.667 4.879 29.388 2.5 34.085 2.5C41.83 2.5 48.262 8.635 48.933 16.388C47.911 16.316 46.381 16.279 44.85 16.512C44.304 16.595 43.929 17.105 44.012 17.651C44.087 18.146 44.513 18.501 44.999 18.501C45.049 18.501 45.1 18.497 45.15 18.489C47.377 18.152 49.698 18.468 49.834 18.487C54.49 19.372 58 23.661 58 28.472C58 34.001 53.501 38.5 47.972 38.5Z" fill="#969696"/>
</g>
<defs>
<clipPath id="clip0_87_128">
<rect width="60" height="40" fill="white" transform="translate(0 0.5)"/>
</clipPath>
</defs>
</svg>
