<svg width="60" height="60" viewBox="0 0 60 60" fill="none" xmlns="http://www.w3.org/2000/svg">
<path d="M14.9773 45.0192L26.6052 43.0309L57.9216 11.7074C60.626 9.09479 60.7009 4.78395 58.0889 2.07886C55.4769 -0.626228 51.167 -0.701131 48.4625 1.9115C48.4058 1.96627 48.35 2.0221 48.2952 2.07886L16.9788 33.4023L14.9773 45.0192ZM50.215 3.99909C51.8654 2.46075 54.4502 2.55204 55.9881 4.20286C57.4498 5.77198 57.4498 8.20437 55.9881 9.77349L54.2316 11.5303L48.4585 5.75594L50.215 3.99909ZM46.5252 7.68975L52.2983 13.4641L27.2315 38.5366V32.7622H21.4584L46.5252 7.68975ZM19.4297 35.4859H24.5084V40.5658L18.3813 41.6145L19.4297 35.4859Z" fill="#FFF3F3"/>
<path d="M58.548 20.5051C57.796 20.5051 57.1865 21.1149 57.1865 21.8669V51.8285C57.1865 54.8371 54.7481 57.276 51.7402 57.276H8.16946C5.16158 57.276 2.72319 54.8371 2.72319 51.8285V8.24811C2.72319 5.23954 5.16158 2.8006 8.16946 2.8006H38.1242C38.8763 2.8006 39.4858 2.19084 39.4858 1.43875C39.4858 0.68667 38.8761 0.0769043 38.1242 0.0769043H8.16946C3.65764 0.0767873 0 3.73526 0 8.24811V51.8287C0 56.3416 3.65764 60 8.16946 60H51.7401C56.252 60 59.9095 56.3415 59.9095 51.8287V21.8671C59.9095 21.1149 59.2999 20.5051 58.548 20.5051Z" fill="#FFF3F3"/>
</svg>
