<svg width="60" height="60" viewBox="0 0 60 60" fill="none" xmlns="http://www.w3.org/2000/svg">
<path d="M17.6953 46.4062C18.9898 46.4062 20.0391 47.4555 20.0391 48.75V55.3125H53.5547V4.6875H20.0391V11.25C20.0391 12.5445 18.9898 13.5938 17.6953 13.5938C16.4009 13.5938 15.3516 12.5445 15.3516 11.25V2.34375C15.3516 1.0493 16.4009 0 17.6953 0H55.8984C57.1929 0 58.2422 1.0493 58.2422 2.34375V57.6562C58.2422 58.9507 57.1929 60 55.8984 60H17.6953C16.4009 60 15.3516 58.9507 15.3516 57.6562V48.75C15.3516 47.4555 16.4009 46.4062 17.6953 46.4062Z" fill="white"/>
<path d="M2.44436 28.3427L8.74201 22.0451C9.65725 21.1297 11.1412 21.1298 12.0565 22.0451C12.9719 22.9603 12.9719 24.4443 12.0565 25.3597L9.7599 27.6562L29.1753 27.6561C30.4696 27.6561 31.519 28.7054 31.519 29.9999C31.519 31.2943 30.4697 32.3436 29.1753 32.3436L9.75967 32.3437L12.0564 34.6405C12.9718 35.5556 12.9718 37.0397 12.0564 37.955C11.1412 38.8704 9.65713 38.8701 8.7419 37.9549L2.44424 31.6572C2.44412 31.657 2.44377 31.6567 2.44377 31.6567C1.97221 31.1847 1.77475 30.6392 1.75776 30C1.75776 29.3681 2.02623 28.7606 2.44436 28.3427Z" fill="white"/>
</svg>
