<svg width="57" height="57" viewBox="0 0 57 57" fill="none" xmlns="http://www.w3.org/2000/svg">
<path d="M40.1895 44.0859C38.9597 44.0859 37.9629 45.0828 37.9629 46.3125V52.5469H6.12305V4.45312H37.9629V10.6875C37.9629 11.9172 38.9597 12.9141 40.1895 12.9141C41.4192 12.9141 42.416 11.9172 42.416 10.6875V2.22656C42.416 0.996832 41.4192 0 40.1895 0H3.89648C2.66675 0 1.66992 0.996832 1.66992 2.22656V54.7734C1.66992 56.0032 2.66675 57 3.89648 57H40.1895C41.4192 57 42.416 56.0032 42.416 54.7734V46.3125C42.416 45.0828 41.4192 44.0859 40.1895 44.0859Z" fill="#969696"/>
<path d="M54.6778 26.9257L48.6951 20.9429C47.8256 20.0733 46.4158 20.0734 45.5463 20.9429C44.6767 21.8124 44.6767 23.2223 45.5463 24.0918L47.7281 26.2735L29.2834 26.2734C28.0538 26.2734 27.0569 27.2703 27.0569 28.5C27.0569 29.7297 28.0537 30.7265 29.2834 30.7265L47.7283 30.7267L45.5464 32.9086C44.6768 33.7779 44.6768 35.1878 45.5464 36.0574C46.4158 36.927 47.8257 36.9267 48.6952 36.0573L54.6779 30.0745C54.6781 30.0743 54.6784 30.0739 54.6784 30.0739C55.1264 29.6256 55.314 29.1074 55.3301 28.5001C55.3301 27.8998 55.0751 27.3227 54.6778 26.9257Z" fill="#969696"/>
</svg>
