<svg width="43" height="57" viewBox="0 0 43 57" fill="none" xmlns="http://www.w3.org/2000/svg">
<path fill-rule="evenodd" clip-rule="evenodd" d="M1.37413 7.79458H41.6208C42.2376 7.79458 42.7339 7.29833 42.7339 6.68151V1.11553C42.7339 0.498573 42.2376 0.00232876 41.6208 0.00232876L1.37413 0.00219727C0.757313 0.00219727 0.261066 0.498442 0.261066 1.11539V6.68138C0.261066 7.29833 0.761917 7.79458 1.37413 7.79458ZM40.5075 5.56818H2.48733V2.22859H40.5075V5.56818Z" fill="white"/>
<path fill-rule="evenodd" clip-rule="evenodd" d="M14.7929 26.2411H28.2067C28.564 26.2411 28.8978 26.0695 29.1065 25.782L42.5252 7.34004C42.7711 7.00146 42.8082 6.55163 42.6181 6.18043C42.4278 5.8095 42.0429 5.57281 41.6254 5.57281H1.37875C0.961269 5.57281 0.576401 5.80937 0.386135 6.18043C0.195999 6.5515 0.233078 7.00146 0.478966 7.34004L13.8931 25.782C14.1016 26.0741 14.4356 26.2411 14.7929 26.2411ZM27.6409 24.0147H15.3587L3.56333 7.79448L39.4361 7.79461L27.6409 24.0147Z" fill="white"/>
<path fill-rule="evenodd" clip-rule="evenodd" d="M28.2067 56.9977C28.4109 56.9977 28.6149 56.9421 28.7958 56.8307C29.1206 56.6265 29.3199 56.2695 29.3199 55.8844L29.3201 25.128C29.3201 24.5111 28.8238 24.0148 28.2069 24.0148L14.7929 24.0147C14.1761 24.0147 13.6797 24.511 13.6797 25.1278V49.312C13.6797 49.7386 13.921 50.1237 14.3012 50.3138L27.7152 56.8864C27.8729 56.9607 28.0397 56.9977 28.2067 56.9977ZM27.0937 26.2411V54.0988L15.906 48.6163V26.2411H27.0937Z" fill="white"/>
</svg>
