<svg width="28" height="57" viewBox="0 0 28 57" fill="none" xmlns="http://www.w3.org/2000/svg">
<g clip-path="url(#clip0_82_232)">
<path d="M26.1992 47.4306C25.539 46.8957 24.6267 46.7846 23.859 47.1434C23.7433 47.1975 23.3682 47.3517 22.3904 47.6199C21.7413 47.7967 21.1805 47.8866 20.723 47.8866C19.7901 47.8866 19.3517 47.7646 19.2006 47.7112C19.1608 47.5906 19.096 47.3137 19.096 46.7904C19.096 46.6151 19.1181 46.0831 19.3288 44.9321C19.4865 44.0384 19.6693 43.2294 19.8763 42.5162L22.5894 32.9899C22.8988 31.9763 23.1125 30.8568 23.2231 29.6656C23.3299 28.5541 23.3807 27.7656 23.3807 27.2563C23.3807 24.5992 22.4125 22.3952 20.5026 20.7042C18.6664 19.0789 16.1228 18.2546 12.9419 18.2546C11.2582 18.2546 9.46843 18.5491 7.62411 19.1301C5.94559 19.657 4.15874 20.3023 2.31295 21.0476C1.65643 21.3122 1.16864 21.8734 0.999902 22.5559L0.267482 25.517C0.0722185 26.3048 0.332324 27.1349 0.943166 27.675C1.55253 28.2143 2.4139 28.3758 3.18243 28.0952C3.71369 27.9001 4.3098 27.7049 4.95527 27.5164C5.4998 27.3571 6.02074 27.276 6.50485 27.276C7.29622 27.276 7.70516 27.3659 7.88127 27.4207C7.92401 27.5566 7.98664 27.8467 7.98664 28.3751C7.98664 28.9151 7.91811 29.5253 7.78032 30.1969C7.63001 30.9474 7.43769 31.7614 7.20559 32.6449L4.46969 42.2473C4.46159 42.2758 4.45422 42.3043 4.44685 42.3335C4.18895 43.4033 3.99664 44.3869 3.87506 45.2602C3.75201 46.1488 3.69011 47.0404 3.69011 47.9078C3.69011 50.5291 4.68485 52.7258 6.64853 54.4401C8.52969 56.0771 11.0998 56.9072 14.2874 56.9072C16.2547 56.9072 18.0276 56.6398 19.5558 56.1121C20.9079 55.6466 22.7006 54.9773 24.8824 54.1222C25.5493 53.8614 26.0474 53.295 26.2183 52.6044L26.9478 49.6463C27.149 48.8278 26.8586 47.9648 26.1992 47.4306ZM18.8226 29.2578C18.7386 30.1603 18.5824 30.989 18.3474 31.7607L15.6262 41.3148C15.3786 42.1676 15.1591 43.1308 14.9771 44.1641C14.7744 45.2726 14.6757 46.132 14.6757 46.7912C14.6757 48.7489 15.2394 50.1951 16.3572 51.0969C16.8391 51.482 17.4248 51.7714 18.1241 51.9658C18.123 51.9661 18.1219 51.9665 18.1208 51.9668C18.1151 51.9687 18.1091 51.9706 18.1042 51.9731C17.0424 52.3392 15.7574 52.5248 14.2859 52.5248C12.2028 52.5248 10.6135 52.0608 9.56569 51.1488C8.57243 50.2813 8.10969 49.2524 8.10969 47.9093C8.10969 47.2391 8.15832 46.5486 8.25338 45.8594C8.35359 45.1411 8.51569 44.3131 8.73527 43.3968L11.4704 33.7974C11.7364 32.7882 11.9479 31.8915 12.1144 31.0636C12.309 30.1136 12.4077 29.2096 12.4077 28.3765C12.4077 26.5321 11.9199 25.1348 10.9546 24.2214C10.4926 23.7858 9.9098 23.4592 9.19653 23.2385C10.5228 22.8417 11.7821 22.64 12.9426 22.64C15.0043 22.64 16.5583 23.0894 17.559 23.9758C18.5154 24.8221 18.9604 25.8641 18.9604 27.2563C18.9604 27.4631 18.9427 27.9958 18.8226 29.2578Z" fill="#969696"/>
<path d="M18.8226 29.2578C18.7386 30.1603 18.5824 30.989 18.3474 31.7607L15.6262 41.3148C15.3786 42.1676 15.1591 43.1308 14.9771 44.1641C14.7744 45.2726 14.6757 46.132 14.6757 46.7912C14.6757 48.7489 15.2394 50.1951 16.3572 51.0969C16.8391 51.482 17.4248 51.7714 18.1241 51.9658L18.1208 51.9668C18.1151 51.9687 18.1091 51.9706 18.1042 51.9731C17.0424 52.3392 15.7574 52.5248 14.2859 52.5248C12.2028 52.5248 10.6135 52.0608 9.56569 51.1488C8.57243 50.2813 8.10969 49.2524 8.10969 47.9093C8.10969 47.2391 8.15832 46.5486 8.25338 45.8594C8.35359 45.1411 8.51569 44.3131 8.73527 43.3968L11.4704 33.7974C11.7364 32.7882 11.9479 31.8915 12.1144 31.0636C12.309 30.1136 12.4077 29.2096 12.4077 28.3765C12.4077 26.5321 11.9199 25.1348 10.9546 24.2214C10.4926 23.7858 9.9098 23.4592 9.19653 23.2385C10.5228 22.8417 11.7821 22.64 12.9426 22.64C15.0043 22.64 16.5583 23.0894 17.559 23.9758C18.5154 24.8221 18.9604 25.8641 18.9604 27.2563C18.9604 27.4631 18.9427 27.9958 18.8226 29.2578Z" fill="#969696"/>
<path fill-rule="evenodd" clip-rule="evenodd" d="M18.9988 16.4547C21.3574 16.4547 23.4088 15.6633 25.0902 14.1075C26.799 12.5356 27.7031 10.5063 27.7031 8.24088C27.7031 5.95358 26.8277 3.97831 25.1005 2.36842C23.4124 0.797269 21.3603 0 18.9995 0C16.6372 0 14.5784 0.794346 12.8793 2.36258C11.161 3.952 10.2524 5.98427 10.2524 8.24015C10.2524 10.507 11.1647 12.5378 12.8881 14.1112C14.5865 15.6662 16.6431 16.4547 18.9988 16.4547ZM18.9988 4.38462C17.7557 4.38462 16.7691 4.76242 15.8922 5.57138C15.0611 6.34015 14.672 7.18858 14.672 8.24015C14.672 9.29173 15.0574 10.1328 15.8834 10.887C16.7661 11.6938 17.755 12.0694 18.9988 12.0694C20.2359 12.0694 21.2144 11.6974 22.0788 10.8972C22.9011 10.1409 23.282 9.29758 23.282 8.24015C23.282 7.18273 22.8974 6.33212 22.0736 5.56408C21.2093 4.7595 20.2322 4.38462 18.9988 4.38462Z" fill="#969696"/>
<path d="M15.8922 5.57138C16.7691 4.76242 17.7557 4.38462 18.9988 4.38462C20.2322 4.38462 21.2093 4.7595 22.0736 5.56408C22.8974 6.33212 23.282 7.18273 23.282 8.24015C23.282 9.29758 22.9011 10.1409 22.0788 10.8972C21.2144 11.6974 20.2359 12.0694 18.9988 12.0694C17.755 12.0694 16.7661 11.6938 15.8834 10.887C15.0574 10.1328 14.672 9.29173 14.672 8.24015C14.672 7.18858 15.0611 6.34015 15.8922 5.57138Z" fill="#969696"/>
</g>
<defs>
<clipPath id="clip0_82_232">
<rect width="28" height="57" fill="white"/>
</clipPath>
</defs>
</svg>
