<svg width="57" height="57" viewBox="0 0 57 57" fill="none" xmlns="http://www.w3.org/2000/svg">
<path d="M55.3967 47.6781L42.9981 35.3406C45.1969 31.7981 46.4184 27.6449 46.4184 23.2474C46.4184 10.4212 35.9743 0.038147 23.2092 0.038147C10.3831 0.038147 0 10.4823 0 23.2474C0 36.0735 10.3831 46.4566 23.2092 46.4566C27.6678 46.4566 31.76 45.174 35.3024 43.0363L47.701 55.3738C48.7394 56.4121 50.083 56.9618 51.5489 56.9618C53.0147 56.9618 54.3584 56.4121 55.3967 55.3738C57.5344 53.2361 57.5344 49.8158 55.3967 47.6781ZM23.2092 43.8303C11.8489 43.8303 2.62631 34.6077 2.62631 23.2474C2.62631 11.8871 11.8489 2.66445 23.2092 2.66445C34.5695 2.66445 43.7921 11.8871 43.7921 23.2474C43.7921 34.6077 34.5695 43.8303 23.2092 43.8303ZM53.4423 53.5415C52.404 54.5798 50.5717 54.5798 49.5334 53.5415L37.5623 41.5094C39.0281 40.3489 40.3107 39.0663 41.4712 37.6004L53.4423 49.6326C54.5417 50.732 54.5417 52.4421 53.4423 53.5415Z" fill="white"/>
<path d="M23.2092 7.61169C14.5973 7.61169 7.57349 14.6355 7.57349 23.2474C7.57349 31.8592 14.5973 38.8831 23.2092 38.8831C31.821 38.8831 38.8449 31.8592 38.8449 23.2474C38.8449 14.6355 31.821 7.61169 23.2092 7.61169ZM23.2092 36.1957C16.0632 36.1957 10.2609 30.3934 10.2609 23.2474C10.2609 16.1014 16.0632 10.2991 23.2092 10.2991C30.3552 10.2991 36.1575 16.1014 36.1575 23.2474C36.1575 30.3934 30.3552 36.1957 23.2092 36.1957Z" fill="white"/>
</svg>
