<svg width="57" height="57" viewBox="0 0 57 57" fill="none" xmlns="http://www.w3.org/2000/svg">
<path d="M49.2889 17.7052L53.6498 13.3443L43.657 3.35097L39.296 7.71188C38.1086 7.09436 36.8624 6.57494 35.5669 6.16586V0H21.4344V6.1656C20.1387 6.57468 18.8919 7.0941 17.705 7.71162L13.3441 3.35097L3.35098 13.3438L7.71218 17.7047C7.09439 18.8921 6.57497 20.1388 6.16589 21.4343H0V35.5665H6.16563C6.57471 36.8617 7.09413 38.1084 7.71166 39.2956L3.35072 43.6565L13.3441 53.6493L17.705 49.2884C18.8922 49.9064 20.1387 50.4253 21.4341 50.8349V57H35.5664V50.8349C36.8621 50.4253 38.1083 49.9064 39.2955 49.2884L43.6564 53.6493L53.6493 43.6565L49.2883 39.2956C49.9064 38.1082 50.4253 36.8614 50.8349 35.5665H57V21.4343H50.8349C50.4258 20.1388 49.9069 18.8921 49.2889 17.7052ZM28.5001 38.4686C22.9947 38.4686 18.5315 34.0057 18.5315 28.5C18.5315 22.9946 22.9944 18.5314 28.5001 18.5314C34.0058 18.5314 38.4688 22.9943 38.4688 28.5C38.469 34.0057 34.0058 38.4686 28.5001 38.4686Z" fill="#969696"/>
</svg>
