<svg width="60" height="60" viewBox="0 0 60 60" fill="none" xmlns="http://www.w3.org/2000/svg">
<path d="M58.8281 48.9844H53.5364L55.5038 48.457C57.0483 48.0437 57.9675 46.4507 57.5542 44.9066L47.4509 7.20016C47.037 5.65613 45.4436 4.73694 43.9 5.1503L33.7505 7.86987V6.5625C33.7505 4.62387 32.1735 3.04688 30.2348 3.04688H19.2192C18.3192 3.04688 17.498 3.38699 16.8755 3.94501C16.2529 3.38699 15.4317 3.04688 14.5317 3.04688H3.51608C1.57745 3.04688 0.000457764 4.62387 0.000457764 6.5625V47.8125C0.000457764 48.3545 0.124054 48.8681 0.343781 49.3272C0.131378 49.5392 0 49.8322 0 50.1562V55.7812C0 56.4285 0.524597 56.9531 1.17188 56.9531H58.8281C59.4754 56.9531 60 56.4285 60 55.7812V50.1562C60 49.509 59.4754 48.9844 58.8281 48.9844ZM54.8973 46.1934L44.5532 48.9651C44.36 49.0169 44.2062 48.9523 44.1316 48.9093C44.0575 48.8667 43.9247 48.7656 43.873 48.5724L41.9856 41.5288L53.4027 38.4695L55.2901 45.5132C55.3693 45.8089 55.193 46.1142 54.8973 46.1934ZM48.0826 18.6136L52.7962 36.2059L41.3791 39.2651L36.2636 20.1732L47.6807 17.114L48.0826 18.6136ZM33.8255 10.4448C33.8681 10.3702 33.9693 10.2379 34.1624 10.1862L44.5065 7.4144C44.5546 7.40158 44.6027 7.39517 44.6503 7.39517C44.8956 7.39517 45.1204 7.55905 45.1868 7.80716L47.0741 14.8503L35.657 17.9095L33.7701 10.8664C33.718 10.6728 33.782 10.5194 33.8255 10.4448ZM41.5572 48.9844H33.549C33.679 48.6177 33.7505 48.2236 33.7505 47.8125V19.8495L41.5572 48.9844ZM16.8755 23.0859C17.5227 23.0859 18.0473 22.5613 18.0473 21.9141V16.0423H31.4067V38.3327H18.0473V32.4609C18.0473 31.8137 17.5227 31.2891 16.8755 31.2891C16.2282 31.2891 15.7036 31.8137 15.7036 32.4609V38.3327H2.34421V16.0423H15.7036V21.9141C15.7036 22.5613 16.2282 23.0859 16.8755 23.0859ZM2.34421 47.8125V40.6764H15.7036V47.8125C15.7036 48.4589 15.1781 48.9844 14.5317 48.9844H3.51608C2.86972 48.9844 2.34421 48.4589 2.34421 47.8125ZM18.0473 47.8125V40.6764H31.4067V47.8125C31.4067 48.4589 30.8812 48.9844 30.2348 48.9844H19.2192C18.5728 48.9844 18.0473 48.4589 18.0473 47.8125ZM19.2192 5.39062H30.2348C30.8812 5.39062 31.4067 5.91614 31.4067 6.5625V10.7085C31.4067 10.7314 31.4062 10.7542 31.4067 10.7771V13.6986H18.0473V6.5625C18.0473 5.91614 18.5728 5.39062 19.2192 5.39062ZM3.51608 5.39062H14.5317C15.1781 5.39062 15.7036 5.91614 15.7036 6.5625V13.6986H2.34421V6.5625C2.34421 5.91614 2.86972 5.39062 3.51608 5.39062ZM57.6562 54.6094H2.34375V51.3281H44.3802C44.3884 51.3281 44.3967 51.329 44.4049 51.329C44.4127 51.329 44.4209 51.3281 44.4292 51.3281H57.6562V54.6094Z" fill="#969696"/>
<path d="M16.0464 28.0161C16.2657 28.2339 16.5669 28.3594 16.875 28.3594C17.1844 28.3594 17.4857 28.2339 17.7036 28.0161C17.9224 27.7982 18.0469 27.4956 18.0469 27.1875C18.0469 26.8794 17.9224 26.5768 17.7036 26.3589C17.4857 26.1411 17.1844 26.0156 16.875 26.0156C16.5669 26.0156 16.2657 26.1411 16.0464 26.3589C15.8286 26.5768 15.7031 26.8794 15.7031 27.1875C15.7031 27.4956 15.8286 27.7982 16.0464 28.0161Z" fill="#969696"/>
</svg>
