<svg width="164" height="164" viewBox="0 0 164 164" fill="none" xmlns="http://www.w3.org/2000/svg">
<g clip-path="url(#clip0_79_34)">
<path d="M82 0C36.786 0 0 36.786 0 82C0 127.214 36.786 164 82 164C127.214 164 164 127.214 164 82C164 36.786 127.214 0 82 0ZM82 157.167C59.5266 157.167 39.3805 147.202 25.5946 131.518C25.9876 131.28 26.3838 131.022 26.7727 130.821C39.7953 124.135 59.9484 116.167 82 116.167C104.052 116.167 124.204 124.135 137.224 130.818C137.615 131.02 138.012 131.279 138.406 131.518C124.619 147.202 104.473 157.167 82 157.167ZM140.35 124.742C126.657 117.712 105.416 109.333 82 109.333C58.5839 109.333 37.343 117.712 23.6464 124.745C22.8562 125.152 22.0763 125.62 21.286 126.133C12.2398 113.722 6.83323 98.4987 6.83323 82C6.83323 40.5528 40.5528 6.83323 82 6.83323C123.447 6.83323 157.167 40.5528 157.167 82C157.167 98.4987 151.761 113.723 142.714 126.133C141.923 125.619 141.143 125.15 140.35 124.742Z" fill="#FFFCFC"/>
<path d="M82 23.9167C60.3357 23.9167 42.7083 41.5439 42.7083 63.2085C42.7083 84.8732 60.3357 102.5 82 102.5C103.664 102.5 121.292 84.8729 121.292 63.2082C121.292 41.5435 103.664 23.9167 82 23.9167ZM82 95.6667C64.1026 95.6667 49.5418 81.106 49.5418 63.2085C49.5418 45.3111 64.1026 30.75 82 30.75C99.8975 30.75 114.458 45.3107 114.458 63.2082C114.458 81.1057 99.8975 95.6667 82 95.6667Z" fill="#FFFCFC"/>
</g>
<defs>
<clipPath id="clip0_79_34">
<rect width="164" height="164" fill="white"/>
</clipPath>
</defs>
</svg>
